<svg width="64" height="64" viewBox="0 0 64 64" fill="none" xmlns="http://www.w3.org/2000/svg">
<path d="M52.1739 64H57.0435V43.7874C55.5765 44.7992 53.9343 45.5727 52.1739 46.0516V64Z" fill="#FB5858"/>
<path d="M20.8696 48.352V64H25.7391V49.7391C30.6272 49.7391 35.0617 47.7992 38.3168 44.6484L28.215 42.7242C26.3083 45.1833 23.782 47.1374 20.8696 48.352Z" fill="#FB5858"/>
<path d="M48 40.5236L40.369 23.6988L32 25.0119V31.6522C32 35.8236 30.5872 39.6644 28.2148 42.7242L38.3167 44.6484L43.1305 45.5652V64H48V40.5236Z" fill="#FBB071"/>
<path d="M28.2148 42.7242C30.5871 39.6644 32 35.8234 32 31.6522V25.0119L13.913 27.4783C8.53426 27.4783 4.17391 23.1179 4.17391 17.7391C4.17391 12.3603 8.53426 7.99999 13.913 7.99999C13.913 6.33725 14.6432 4.84591 15.7992 3.82608H13.913C6.22901 3.82608 0 10.0551 0 17.7391C0 25.423 6.22901 31.6522 13.913 31.6522V45.2174H9.04348V64H13.913V49.7391C16.3783 49.7391 18.7279 49.2451 20.8696 48.352C23.782 47.1374 26.3083 45.1833 28.2148 42.7242Z" fill="#FB5858"/>
<path d="M13.913 8H19.4782C22.5518 8 25.0435 5.50831 25.0435 2.43478H19.4782C18.0675 2.43478 16.7801 2.96084 15.7992 3.82609C14.6432 4.84591 13.913 6.33725 13.913 8Z" fill="#FB5858"/>
<path d="M51.4783 15.1055V10.2481C50.1852 10.2481 49.1368 9.19972 49.1368 7.90664C49.1368 6.61356 50.1852 5.56522 51.4783 5.56522H55.6522L61.2174 7.95033V0H54.2609C46.6087 0 40.3478 6.26087 40.3478 13.913V23.6522L40.369 23.6988L48 40.5235V46.6087C49.4427 46.6087 50.8419 46.4141 52.1739 46.0516C53.9343 45.5727 55.5765 44.7992 57.0435 43.7874C61.2372 40.8952 64 36.0593 64 30.6087L61.2174 15.1055H51.4783Z" fill="#FB5858"/>
<path d="M64 12.3229V9.14282L61.2174 7.95033L55.6522 5.56522H51.4783V15.1055H61.2174C62.7478 15.1055 64 13.8534 64 12.3229Z" fill="#FBB071"/>
<path d="M49.1368 7.90664C49.1368 9.19972 50.1852 10.2481 51.4783 10.2481V5.56522C50.1852 5.56522 49.1368 6.61356 49.1368 7.90664Z" fill="#FB5858"/>
</svg>
