<svg width="45" height="36" viewBox="0 0 45 36" fill="none" xmlns="http://www.w3.org/2000/svg">
<g clip-path="url(#clip0)">
<path fill-rule="evenodd" clip-rule="evenodd" d="M17.5802 36C32.6744 36 40.9305 23.687 40.9305 13.0104C40.9305 12.6599 40.9305 12.3121 40.9065 11.9655C42.5125 10.8234 43.8985 9.40538 45.0005 7.78284C43.5045 8.43659 41.9145 8.86532 40.2884 9.05434C42.0005 8.04419 43.2825 6.45718 43.8965 4.58456C42.2845 5.52579 40.5224 6.19007 38.6844 6.5465C35.5764 3.29352 30.3783 3.13591 27.0723 6.19591C24.9423 8.16895 24.0362 11.1107 24.6983 13.9167C18.1002 13.5898 11.9521 10.522 7.78404 5.47519C5.60601 9.16726 6.72002 13.8887 10.3261 16.2595C9.02005 16.2221 7.74204 15.8759 6.60002 15.2497V15.3523C6.60202 19.198 9.35606 22.5093 13.1841 23.2713C11.9761 23.5962 10.7081 23.6433 9.48006 23.409C10.5541 26.7014 13.6361 28.9564 17.1462 29.0214C14.2401 31.2701 10.6501 32.4912 6.95403 32.4873C6.30202 32.4853 5.65001 32.4478 5 32.371C8.75405 34.7419 13.1201 36 17.5802 35.9941" fill="white"/>
</g>
<defs>
<clipPath id="clip0">
<rect width="45" height="36" fill="white"/>
</clipPath>
</defs>
</svg>
