<?xml version="1.0" standalone="no"?>
<!DOCTYPE svg PUBLIC "-//W3C//DTD SVG 20010904//EN"
 "http://www.w3.org/TR/2001/REC-SVG-20010904/DTD/svg10.dtd">
<svg version="1.0" xmlns="http://www.w3.org/2000/svg"
 width="700.000000pt" height="700.000000pt" viewBox="0 0 700.000000 700.000000"
 preserveAspectRatio="xMidYMid meet">
<metadata>
Created by potrace 1.11, written by Peter Selinger 2001-2013
</metadata>
<g transform="translate(0.000000,700.000000) scale(0.100000,-0.100000)"
fill="#000000" stroke="none">
<path d="M5720 6984 c-199 -33 -309 -68 -478 -153 -243 -122 -472 -337 -614
-576 -44 -73 -112 -217 -126 -265 -6 -19 -20 -66 -32 -105 -11 -38 -23 -83
-25 -100 -2 -16 -10 -55 -16 -85 -8 -38 -13 -244 -15 -650 -3 -705 -2 -650
-11 -648 -7 2 -138 -17 -190 -26 -10 -2 -40 -7 -68 -10 -27 -4 -62 -9 -77 -11
-16 -3 -43 -7 -60 -10 -18 -3 -58 -10 -88 -15 -30 -5 -77 -12 -105 -16 -27 -3
-57 -7 -65 -9 -8 -1 -35 -6 -60 -10 -25 -4 -52 -9 -60 -10 -8 -1 -40 -6 -70
-11 -30 -4 -57 -8 -60 -9 -3 -1 -34 -5 -70 -9 -36 -5 -74 -10 -85 -12 -11 -2
-108 -15 -215 -29 -107 -14 -220 -30 -250 -35 -30 -5 -82 -12 -115 -15 -33 -4
-67 -8 -75 -10 -8 -2 -103 -16 -210 -30 -107 -14 -206 -27 -220 -29 -14 -3
-43 -7 -65 -10 -78 -9 -202 -27 -222 -30 -11 -3 -44 -7 -74 -11 -30 -3 -65 -8
-79 -10 -14 -2 -49 -7 -79 -10 -30 -4 -63 -8 -74 -11 -201 -38 -402 -10 -602
86 -549 263 -767 923 -483 1460 134 253 370 444 648 523 127 37 171 40 595 42
255 2 407 7 440 14 28 7 88 30 135 53 161 77 292 245 324 415 7 38 12 81 12
98 l-1 30 -335 -1 c-206 -1 -355 -5 -386 -12 -84 -18 -162 -52 -228 -97 l-63
-43 -146 0 c-168 -1 -225 -6 -358 -33 -567 -112 -1026 -548 -1170 -1108 -65
-255 -61 -541 10 -801 112 -405 426 -774 812 -954 194 -90 343 -128 554 -143
50 -3 92 -7 94 -9 2 -2 4 -1282 2 -1444 l-1 -35 -263 0 -262 0 -3 -1027 -2
-1028 265 0 265 0 1 23 c0 12 0 363 1 779 l0 758 37 1 c205 3 466 52 639 119
42 16 78 28 81 26 3 -2 6 -387 5 -855 l-1 -851 266 0 266 0 0 780 0 780 45 1
c346 9 681 106 975 284 109 66 142 90 255 183 69 57 111 86 125 84 11 -2 88
-16 170 -32 83 -16 166 -32 185 -35 19 -3 60 -11 90 -18 l55 -12 2 -995 c1
-547 2 -1001 2 -1007 1 -10 61 -13 266 -13 l265 0 0 950 c0 523 3 950 8 951 4
0 42 2 85 4 93 5 211 21 288 41 31 8 61 14 66 14 6 0 9 -389 9 -980 l-1 -980
267 0 267 0 0 1033 c0 567 1 1066 1 1107 l1 75 49 33 c53 37 146 118 223 197
298 304 491 772 482 1170 -1 49 -5 101 -8 115 -3 14 -15 77 -26 140 -11 63
-23 126 -25 140 -3 14 -16 90 -30 170 -14 80 -28 154 -30 165 -10 50 -35 194
-40 227 -3 21 -10 57 -15 80 -5 24 -12 59 -15 78 -3 19 -15 87 -26 150 -12 63
-22 124 -24 135 -2 11 -9 47 -15 80 -6 33 -13 76 -16 95 -3 19 -11 63 -19 98
l-13 62 28 0 c56 0 140 41 189 91 78 80 85 109 85 353 l0 209 -142 61 c-78 34
-145 65 -150 69 -4 5 -8 201 -8 435 l0 427 -450 1 c-316 0 -472 -3 -525 -12z"/>
</g>
</svg>
